<svg xmlns="http://www.w3.org/2000/svg" viewBox="0 0 1200 360" role="img" aria-label="RP ACADEMY. Aprendizagem e avaliação para comunidades de roleplay.">
<defs><linearGradient id="bg" x2="1" y2="1"><stop stop-color="#0c121e"/><stop offset="1" stop-color="#132b32"/></linearGradient><linearGradient id="line"><stop stop-color="#A78BFA"/><stop offset="1" stop-color="#60A5FA"/></linearGradient><pattern id="grid" width="30" height="30" patternUnits="userSpaceOnUse"><path d="M30 0H0V30" fill="none" stroke="#A78BFA" stroke-opacity=".055"/></pattern></defs>
<rect width="1200" height="360" rx="22" fill="url(#bg)"/><rect width="1200" height="360" rx="22" fill="url(#grid)"/><circle cx="1140" cy="15" r="230" fill="#A78BFA" opacity=".07"/><circle cx="35" cy="315" r="140" fill="#60A5FA" opacity=".05"/>
<rect x="58" y="52" width="208" height="31" rx="15.5" fill="#A78BFA" fill-opacity=".12" stroke="#A78BFA" stroke-opacity=".55"/><text x="75" y="72" fill="#A78BFA" font-family="Arial,sans-serif" font-size="14" font-weight="bold" letter-spacing="2">LEARNING PLATFORM</text>
<text x="58" y="167" fill="#f5f8fa" font-size="66" font-family="Arial,sans-serif" font-weight="bold" letter-spacing="-1">RP ACADEMY</text><rect x="59" y="191" width="96" height="5" rx="2.5" fill="url(#line)"/>
<text x="60" y="233" fill="#c7dadf" font-size="19" font-family="Arial,sans-serif">Aprendizagem e avaliação para comunidades de roleplay.</text>
<rect x="58" y="276" width="260" height="31" rx="8" fill="#1d343b" stroke="#A78BFA" stroke-opacity=".45"/><text x="76" y="297" fill="#A78BFA" font-family="monospace" font-size="15">NEXT.JS  /  TYPESCRIPT</text>
<rect x="783" y="81" width="345" height="208" rx="17" fill="#141a32" stroke="#5a578d"/><text x="810" y="112" fill="#ddd6fe" font-size="15" font-family="monospace">LEARNING PATH</text><rect x="807" y="130" width="297" height="35" rx="9" fill="#24394d"/><rect x="807" y="130" width="5" height="35" rx="2" fill="#A78BFA"/><text x="823" y="153" fill="#e6e9ff" font-size="16" font-family="Arial">ROLEPLAY</text><circle cx="1078" cy="147" r="5" fill="#A78BFA"/><rect x="807" y="176" width="297" height="35" rx="9" fill="#22243c"/><rect x="807" y="176" width="5" height="35" rx="2" fill="#60A5FA"/><text x="823" y="199" fill="#e6e9ff" font-size="16" font-family="Arial">STAFF</text><circle cx="1078" cy="193" r="5" fill="#A78BFA"/><rect x="807" y="222" width="297" height="35" rx="9" fill="#22243c"/><rect x="807" y="222" width="5" height="35" rx="2" fill="#A78BFA"/><text x="823" y="245" fill="#e6e9ff" font-size="16" font-family="Arial">CORPORAÇÕES</text><circle cx="1078" cy="239" r="5" fill="#A78BFA"/><path d="M58 329H1140" stroke="#A78BFA" stroke-opacity=".24"/></svg>